<svg xmlns="http://www.w3.org/2000/svg" viewBox="0 0 512 512">
  <defs>
    <linearGradient id="yellowGrad" x1="0%" y1="0%" x2="100%" y2="100%">
      <stop offset="0%" style="stop-color:#FFD700;stop-opacity:1" />
      <stop offset="100%" style="stop-color:#FFA500;stop-opacity:1" />
    </linearGradient>
  </defs>
  <!-- Rounded Rect Background -->
  <rect width="512" height="512" rx="120" fill="url(#yellowGrad)" />
  
  <!-- Sleek Car Silhouette -->
  <path d="M100 320 L100 350 C100 366.5 113.5 380 130 380 L382 380 C398.5 380 412 366.5 412 350 L412 320 L380 240 C370 210 340 190 310 190 L202 190 C172 190 142 210 132 240 L100 320 Z" fill="#1A1A1A" />
  
  <!-- Windshield -->
  <path d="M202 210 L310 210 L350 300 L162 300 Z" fill="#FFFFFF" opacity="0.2" />
  
  <!-- Roof Sign -->
  <rect x="216" y="150" width="80" height="40" rx="8" fill="#1A1A1A" />
  <text x="256" y="180" font-family="system-ui, -apple-system, sans-serif" font-size="24" font-weight="900" fill="#FFD700" text-anchor="middle">CAB</text>

  <!-- Wheels/Lower detail -->
  <rect x="140" y="380" width="50" height="15" rx="5" fill="#1A1A1A" />
  <rect x="322" y="380" width="50" height="15" rx="5" fill="#1A1A1A" />
</svg>
